{"title":"Formula 1 2011 Turkey Practice 1","uid":6371789,"size":1606872967,"categoryP":"video","categoryS":"tv_shows","magnet":"?xt=urn:btih:df1cba0a6105cb177b84864c99f428920de758b2&amp;dn=Formula+1+2011+Turkey+Practice+1&amp;tr=udp%3A%2F%2Ftracker.openbittorrent.com%3A80&amp;tr=udp%3A%2F%2Fopen.demonii.com%3A1337&amp;tr=udp%3A%2F%2Ftracker.coppersurfer.tk%3A6969&amp;tr=udp%3A%2F%2Fexodus.desync.com%3A6969","seeders":1,"leechers":0,"uploader":"jorrell0733","files":3,"time":1304701572,"description":"[img]http://www.khaolaknews.com/wp-content/uploads/2011/03/f1.jpg[/img]\n\nFormula One 2011 Season\n\nRace 3: Turkish Grand Prix, Istanbul Park Curcuit\n\nRecord Source: BBC One Red Button Stream\nOriginal Format: MPEG TS Stream\nDate: Friday 06th May 2011\nTime: 08:00 to 09:30\n\nAfter several requests, I have now opted for the Matroska container format (mkv) for all sessions.\n\n\nTurkey Grand Prix Practice Session 1\n\nF1 coverage of the 1st Practice Session for the 4th Race meeting of the \n2011 Formula One season, for the Turkish Grand Prix, at the Istanbul Park Curcuit\n\nComplete name                    : F1 2011 Turkey Practice 1.mkv\nFormat                           : Matroska\nFile size                        : 1.50 GiB\nDuration                         : 1h 40mn\nOverall bit rate                 : 2 140 Kbps\nWriting application              : Lavf51.12.1\nWriting library                  : Lavf51.12.1\n\nVideo\nID                               : 1\nFormat                           : AVC\nFormat/Info                      : Advanced Video Codec\nFormat profile                   : &lt;a class=&quot;__cf_email__&quot; href=&quot;/cdn-cgi/l/email-protection&quot; data-cfemail=&quot;6b290a180e0702050e2b275f455a&quot;&gt;[email&amp;#160;protected]&lt;/a&gt;&lt;script cf-hash='f9e31' type=&quot;text/javascript&quot;&gt;\n/* &lt;![CDATA[ */!function(){try{var t=&quot;currentScript&quot;in document?document.currentScript:function(){for(var t=document.getElementsByTagName(&quot;script&quot;),e=t.length;e--;)if(t[e].getAttribute(&quot;cf-hash&quot;))return t[e]}();if(t&amp;&amp;t.previousSibling){var e,r,n,i,c=t.previousSibling,a=c.getAttribute(&quot;data-cfemail&quot;);if(a){for(e=&quot;&quot;,r=parseInt(a.substr(0,2),16),n=2;a.length-n;n+=2)i=parseInt(a.substr(n,2),16)^r,e+=String.fromCharCode(i);e=document.createTextNode(e),c.parentNode.replaceChild(e,c)}}}catch(u){}}();/* ]]&gt; */&lt;/script&gt;\nFormat settings, CABAC           : No\nFormat settings, ReFrames        : 1 frame\nCodec ID                         : V_MPEG4/ISO/AVC\nDuration                         : 1h 40mn\nBit rate                         : 1 970 Kbps\nWidth                            : 1 024 pixels\nHeight                           : 576 pixels\nDisplay aspect ratio             : 16:9\nFrame rate                       : 25.000 fps\nColor space                      : YUV\nChroma subsampling               : 4:2:0\nBit depth                        : 8 bits\nScan type                        : Progressive\nBits/(Pixel*Frame)               : 0.134\nStream size                      : 1.38 GiB (92%)\nLanguage                         : English\n\nAudio\nID                               : 2\nFormat                           : AC-3\nFormat/Info                      : Audio Coding 3\nMode extension                   : CM (complete main)\nCodec ID                         : A_AC3\nDuration                         : 1h 40mn\nBit rate mode                    : Constant\nBit rate                         : 128 Kbps\nChannel(s)                       : 2 channels\nChannel positions                : Front: L R\nSampling rate                    : 48.0 KHz\nBit depth                        : 16 bits\nCompression mode                 : Lossy\nStream size                      : 91.6 MiB (6%)\nLanguage                         : English / English\n\n\n\n\nEnjoy\n\nThe BlackKnight","torrent":{"xt":"urn:btih:df1cba0a6105cb177b84864c99f428920de758b2","amp;dn":"Formula+1+2011+Turkey+Practice+1","amp;tr":["udp%3A%2F%2Ftracker.openbittorrent.com%3A80","udp%3A%2F%2Fopen.demonii.com%3A1337","udp%3A%2F%2Ftracker.coppersurfer.tk%3A6969","udp%3A%2F%2Fexodus.desync.com%3A6969"],"infoHash":"df1cba0a6105cb177b84864c99f428920de758b2","infoHashBuffer":{"type":"Buffer","data":[223,28,186,10,97,5,203,23,123,132,134,76,153,244,40,146,13,231,88,178]},"announce":[],"urlList":[]}}